<?xml version="1.0" encoding="UTF-8" standalone="no"?>
<!-- Created with Inkscape (http://www.inkscape.org/) -->

<svg
   xmlns:dc="http://purl.org/dc/elements/1.1/"
   xmlns:cc="http://creativecommons.org/ns#"
   xmlns:rdf="http://www.w3.org/1999/02/22-rdf-syntax-ns#"
   xmlns:svg="http://www.w3.org/2000/svg"
   xmlns="http://www.w3.org/2000/svg"
   xmlns:xlink="http://www.w3.org/1999/xlink"
   xmlns:sodipodi="http://sodipodi.sourceforge.net/DTD/sodipodi-0.dtd"
   xmlns:inkscape="http://www.inkscape.org/namespaces/inkscape"
   width="744.09448819"
   height="1052.3622047"
   id="svg2"
   version="1.1"
   inkscape:version="0.48.4 r9939"
   sodipodi:docname="pecubeLogo1.svg"
   inkscape:export-filename="/home/imalkov/Documents/pycharm_workspace/pekan-dash/pekan/static/images/pecubeLogo1.png"
   inkscape:export-xdpi="90"
   inkscape:export-ydpi="90">
  <defs
     id="defs4">
    <linearGradient
       inkscape:collect="always"
       id="linearGradient7484">
      <stop
         style="stop-color:#090a80;stop-opacity:1;"
         offset="0"
         id="stop7486" />
      <stop
         style="stop-color:#090a80;stop-opacity:0;"
         offset="1"
         id="stop7488" />
    </linearGradient>
    <linearGradient
       inkscape:collect="always"
       id="linearGradient7476">
      <stop
         style="stop-color:#d6090f;stop-opacity:1;"
         offset="0"
         id="stop7478" />
      <stop
         style="stop-color:#d6090f;stop-opacity:0;"
         offset="1"
         id="stop7480" />
    </linearGradient>
    <linearGradient
       inkscape:collect="always"
       id="linearGradient7468">
      <stop
         style="stop-color:#100880;stop-opacity:1;"
         offset="0"
         id="stop7470" />
      <stop
         style="stop-color:#100880;stop-opacity:0;"
         offset="1"
         id="stop7472" />
    </linearGradient>
    <marker
       inkscape:stockid="Arrow1Mend"
       orient="auto"
       refY="0.0"
       refX="0.0"
       id="Arrow1Mend"
       style="overflow:visible;">
      <path
         id="path3946"
         d="M 0.0,0.0 L 5.0,-5.0 L -12.5,0.0 L 5.0,5.0 L 0.0,0.0 z "
         style="fill-rule:evenodd;stroke:#000000;stroke-width:1.0pt;"
         transform="scale(0.4) rotate(180) translate(10,0)" />
    </marker>
    <linearGradient
       id="linearGradient5497">
      <stop
         style="stop-color:#e29300;stop-opacity:0.98461539;"
         offset="0"
         id="stop5499" />
      <stop
         style="stop-color:#da0100;stop-opacity:0;"
         offset="1"
         id="stop5501" />
    </linearGradient>
    <marker
       inkscape:stockid="Arrow2Lend"
       orient="auto"
       refY="0.0"
       refX="0.0"
       id="Arrow2Lend"
       style="overflow:visible;">
      <path
         id="path3958"
         style="fill-rule:evenodd;stroke-width:0.62500000;stroke-linejoin:round;"
         d="M 8.7185878,4.0337352 L -2.2072895,0.016013256 L 8.7185884,-4.0017078 C 6.9730900,-1.6296469 6.9831476,1.6157441 8.7185878,4.0337352 z "
         transform="scale(1.1) rotate(180) translate(1,0)" />
    </marker>
    <marker
       inkscape:stockid="Arrow1Lend"
       orient="auto"
       refY="0.0"
       refX="0.0"
       id="Arrow1Lend"
       style="overflow:visible;">
      <path
         id="path3940"
         d="M 0.0,0.0 L 5.0,-5.0 L -12.5,0.0 L 5.0,5.0 L 0.0,0.0 z "
         style="fill-rule:evenodd;stroke:#000000;stroke-width:1.0pt;"
         transform="scale(0.8) rotate(180) translate(12.5,0)" />
    </marker>
    <marker
       inkscape:stockid="Arrow1Send"
       orient="auto"
       refY="0.0"
       refX="0.0"
       id="Arrow1Send"
       style="overflow:visible;">
      <path
         id="path3952"
         d="M 0.0,0.0 L 5.0,-5.0 L -12.5,0.0 L 5.0,5.0 L 0.0,0.0 z "
         style="fill-rule:evenodd;stroke:#000000;stroke-width:1.0pt;"
         transform="scale(0.2) rotate(180) translate(6,0)" />
    </marker>
    <inkscape:perspective
       sodipodi:type="inkscape:persp3d"
       inkscape:vp_x="-10.641911 : 906.73857 : 1"
       inkscape:vp_y="0 : 216.41154 : 0"
       inkscape:vp_z="546.29067 : 906.73857 : 1"
       inkscape:persp3d-origin="267.82438 : 868.78135 : 1"
       id="perspective3808" />
    <linearGradient
       id="linearGradient3800">
      <stop
         id="stop3802"
         offset="0"
         style="stop-color:#f71b05;stop-opacity:0.92307693;" />
      <stop
         id="stop3804"
         offset="1"
         style="stop-color:#000000;stop-opacity:0;" />
    </linearGradient>
    <linearGradient
       inkscape:collect="always"
       xlink:href="#linearGradient3800-8"
       id="linearGradient7365-6"
       x1="341.64264"
       y1="54.426926"
       x2="404.51694"
       y2="54.426926"
       gradientUnits="userSpaceOnUse" />
    <linearGradient
       id="linearGradient3800-8">
      <stop
         id="stop3802-7"
         offset="0"
         style="stop-color:#f71b05;stop-opacity:0.92307693;" />
      <stop
         id="stop3804-4"
         offset="1"
         style="stop-color:#000000;stop-opacity:0;" />
    </linearGradient>
    <marker
       inkscape:stockid="Arrow1Mend"
       orient="auto"
       refY="0"
       refX="0"
       id="Arrow1Mend-9"
       style="overflow:visible">
      <path
         inkscape:connector-curvature="0"
         id="path3946-2"
         d="M 0,0 5,-5 -12.5,0 5,5 0,0 z"
         style="fill-rule:evenodd;stroke:#000000;stroke-width:1pt"
         transform="matrix(-0.4,0,0,-0.4,-4,0)" />
    </marker>
    <linearGradient
       inkscape:collect="always"
       xlink:href="#linearGradient3800-5"
       id="linearGradient7365-4"
       x1="341.64264"
       y1="54.426926"
       x2="404.51694"
       y2="54.426926"
       gradientUnits="userSpaceOnUse" />
    <linearGradient
       id="linearGradient3800-5">
      <stop
         id="stop3802-9"
         offset="0"
         style="stop-color:#f71b05;stop-opacity:0.92307693;" />
      <stop
         id="stop3804-1"
         offset="1"
         style="stop-color:#000000;stop-opacity:0;" />
    </linearGradient>
    <marker
       inkscape:stockid="Arrow1Mend"
       orient="auto"
       refY="0"
       refX="0"
       id="Arrow1Mend-2"
       style="overflow:visible">
      <path
         inkscape:connector-curvature="0"
         id="path3946-8"
         d="M 0,0 5,-5 -12.5,0 5,5 0,0 z"
         style="fill-rule:evenodd;stroke:#000000;stroke-width:1pt"
         transform="matrix(-0.4,0,0,-0.4,-4,0)" />
    </marker>
    <marker
       inkscape:stockid="Arrow1Mend"
       orient="auto"
       refY="0"
       refX="0"
       id="Arrow1Mend-0"
       style="overflow:visible">
      <path
         inkscape:connector-curvature="0"
         id="path3946-6"
         d="M 0,0 5,-5 -12.5,0 5,5 0,0 z"
         style="fill-rule:evenodd;stroke:#000000;stroke-width:1pt"
         transform="matrix(-0.4,0,0,-0.4,-4,0)" />
    </marker>
    <marker
       inkscape:stockid="Arrow1Mend"
       orient="auto"
       refY="0"
       refX="0"
       id="Arrow1Mend-09"
       style="overflow:visible">
      <path
         inkscape:connector-curvature="0"
         id="path3946-4"
         d="M 0,0 5,-5 -12.5,0 5,5 0,0 z"
         style="fill-rule:evenodd;stroke:#000000;stroke-width:1pt"
         transform="matrix(-0.4,0,0,-0.4,-4,0)" />
    </marker>
    <linearGradient
       inkscape:collect="always"
       xlink:href="#linearGradient7468"
       id="linearGradient7474"
       x1="340.7498"
       y1="50.323248"
       x2="403.51088"
       y2="50.323248"
       gradientUnits="userSpaceOnUse"
       gradientTransform="translate(0,5.0123487)" />
    <linearGradient
       inkscape:collect="always"
       xlink:href="#linearGradient7476"
       id="linearGradient7482"
       x1="340.58376"
       y1="63.217718"
       x2="403.34484"
       y2="63.217718"
       gradientUnits="userSpaceOnUse" />
    <linearGradient
       inkscape:collect="always"
       xlink:href="#linearGradient7484"
       id="linearGradient7490"
       x1="340.58375"
       y1="76.112188"
       x2="403.34483"
       y2="76.112188"
       gradientUnits="userSpaceOnUse" />
    <linearGradient
       inkscape:collect="always"
       xlink:href="#linearGradient7476-6"
       id="linearGradient7482-4"
       x1="340.58377"
       y1="63.217716"
       x2="403.34485"
       y2="63.217716"
       gradientUnits="userSpaceOnUse" />
    <linearGradient
       inkscape:collect="always"
       id="linearGradient7476-6">
      <stop
         style="stop-color:#d6090f;stop-opacity:1;"
         offset="0"
         id="stop7478-6" />
      <stop
         style="stop-color:#d6090f;stop-opacity:0;"
         offset="1"
         id="stop7480-3" />
    </linearGradient>
    <marker
       inkscape:stockid="Arrow1Mend"
       orient="auto"
       refY="0"
       refX="0"
       id="Arrow1Mend-99"
       style="overflow:visible">
      <path
         inkscape:connector-curvature="0"
         id="path3946-5"
         d="M 0,0 5,-5 -12.5,0 5,5 0,0 z"
         style="fill-rule:evenodd;stroke:#000000;stroke-width:1pt"
         transform="matrix(-0.4,0,0,-0.4,-4,0)" />
    </marker>
    <linearGradient
       gradientTransform="translate(0.632977,-15.764168)"
       y2="63.217716"
       x2="403.34485"
       y1="63.217716"
       x1="340.58377"
       gradientUnits="userSpaceOnUse"
       id="linearGradient7534"
       xlink:href="#linearGradient7476-6"
       inkscape:collect="always" />
  </defs>
  <sodipodi:namedview
     id="base"
     pagecolor="#ffffff"
     bordercolor="#666666"
     borderopacity="1.0"
     inkscape:pageopacity="0.0"
     inkscape:pageshadow="2"
     inkscape:zoom="2.8"
     inkscape:cx="271.09877"
     inkscape:cy="958.01173"
     inkscape:document-units="px"
     inkscape:current-layer="g7557"
     showgrid="false"
     inkscape:window-width="1317"
     inkscape:window-height="744"
     inkscape:window-x="49"
     inkscape:window-y="24"
     inkscape:window-maximized="1" />
  <metadata
     id="metadata7">
    <rdf:RDF>
      <cc:Work
         rdf:about="">
        <dc:format>image/svg+xml</dc:format>
        <dc:type
           rdf:resource="http://purl.org/dc/dcmitype/StillImage" />
        <dc:title></dc:title>
      </cc:Work>
    </rdf:RDF>
  </metadata>
  <g
     inkscape:label="Layer 1"
     inkscape:groupmode="layer"
     id="layer1">
    <g
       id="g7557">
      <g
         transform="matrix(1.0283838,0,0,1.129498,-199.5959,-33.022224)"
         id="g7463">
        <path
           style="fill:url(#linearGradient7474);fill-opacity:1;stroke:#000000;stroke-width:0.92156905;stroke-linecap:butt;stroke-linejoin:miter;stroke-miterlimit:4;stroke-opacity:1;stroke-dasharray:none;marker-end:url(#Arrow1Mend)"
           d="m 341.21058,56.036127 c 3.34236,-2.978425 12.53155,-5.951729 26.45687,0.04564 9.52928,4.099903 22.03637,0.664743 28.99928,0.05238 -0.28728,-0.04983 -1.51932,-0.09967 5.69221,-0.149499"
           id="path6973"
           inkscape:connector-curvature="0"
           sodipodi:nodetypes="cccc" />
        <path
           style="fill:url(#linearGradient7482);fill-opacity:1;stroke:#000000;stroke-width:0.92156905;stroke-linecap:butt;stroke-linejoin:miter;stroke-miterlimit:4;stroke-opacity:1;stroke-dasharray:none;marker-end:url(#Arrow1Mend)"
           d="m 341.04454,63.918249 c 3.34236,-2.978425 12.53155,-5.951729 26.45687,0.04564 9.52928,4.099903 22.03637,0.664743 28.99928,0.05238 -0.28728,-0.04983 -1.51932,-0.09967 5.69221,-0.149499"
           id="path6973-4"
           inkscape:connector-curvature="0"
           sodipodi:nodetypes="cccc" />
        <path
           style="fill:url(#linearGradient7534);fill-opacity:1;stroke:#000000;stroke-width:0.92156905;stroke-linecap:butt;stroke-linejoin:miter;stroke-miterlimit:4;stroke-opacity:1;stroke-dasharray:none;marker-end:url(#Arrow1Mend)"
           d="m 341.67753,48.154081 c 3.34236,-2.978425 12.53155,-5.951729 26.45687,0.04564 9.52928,4.099903 22.03637,0.664743 28.99928,0.05238 -0.28728,-0.04983 -1.51932,-0.09967 5.69221,-0.149499"
           id="path6973-4-2"
           inkscape:connector-curvature="0"
           sodipodi:nodetypes="cccc" />
      </g>
      <path
         d="m 279.59375,37.9375 a 7.3634248,7.3634248 0 0 0 -7.375,7.375 l 0,2.21875 a 7.3634248,7.3634248 0 0 0 -0.21875,0 l -7.875,0 a 7.3634248,7.3634248 0 0 0 -4.46875,1.53125 7.3634248,7.3634248 0 0 0 -4.46875,-1.53125 l -7.9375,0 A 7.3634248,7.3634248 0 0 0 243.21875,48.75 c -1.62206,-0.591534 -3.28119,-1.021954 -4.90625,-1.3125 l 0,-0.03125 c -0.0415,-0.0078 -0.0835,0.0076 -0.125,0 -1.69443,-0.310439 -3.39783,-0.468718 -5.0625,-0.46875 -5.66324,3.2e-5 -11.23183,1.579817 -15.34375,5.3125 -0.0109,0.0099 -0.0204,0.02131 -0.0312,0.03125 -0.2742,0.249882 -0.4631,0.577701 -0.71875,0.84375 -0.15591,-0.169382 -0.27449,-0.367765 -0.4375,-0.53125 -0.006,-0.0058 -0.0255,0.0058 -0.0312,0 -3.7839,-3.796792 -9.16319,-5.656216 -14.46875,-5.65625 -4.09064,2.4e-5 -8.14547,0.957581 -11.59375,2.9375 -1.01382,-2.319965 -2.49579,-4.422006 -4.4375,-6.03125 -0.0112,-0.0094 -0.02,-0.02188 -0.0312,-0.03125 -3.93057,-3.266841 -9.00216,-4.499958 -14.28125,-4.5 l -14.0625,0 a 7.3634248,7.3634248 0 0 0 -7.375,7.375 l 0,32.8125 a 7.3634248,7.3634248 0 0 0 7.375,7.375 l 8.46875,0 a 7.3634248,7.3634248 0 0 0 7.375,-7.375 l 0,-4.125 c 2.99885,-0.164257 5.88004,-0.748031 8.5,-1.9375 0.94202,3.312331 2.59095,6.380798 5.125,8.71875 a 7.3634248,7.3634248 0 0 0 0.0312,0.03125 c 4.11677,3.751391 9.68829,5.312499 15.375,5.3125 2.27548,-10e-7 4.60598,-0.232978 6.9375,-0.6875 l 0,0.03125 c 0.0225,-0.0043 0.04,-0.02695 0.0625,-0.03125 2.30033,-0.439124 4.54654,-1.10471 6.75,-1.9375 a 7.3634248,7.3634248 0 0 0 2.71875,-1.78125 c 3.9516,3.006128 8.93852,4.406249 14.09375,4.40625 1.66509,-10e-7 3.35871,-0.158006 5.0625,-0.46875 0.0313,-0.0057 0.0625,0.0058 0.0937,0 l 0,-0.03125 c 1.65389,-0.290698 3.33054,-0.707934 4.96875,-1.3125 a 7.3634248,7.3634248 0 0 0 2.5625,-1.625 c 2.93321,2.294599 6.69173,3.437499 10.1875,3.4375 1.88334,-10e-7 3.79156,-0.429104 5.625,-1.0625 a 7.3634248,7.3634248 0 0 0 2.5,0.4375 l 7.875,0 a 7.3634248,7.3634248 0 0 0 3.8125,-1.09375 7.3634248,7.3634248 0 0 0 3.78125,1.09375 l 7.875,0 a 7.3634248,7.3634248 0 0 0 2.40625,-0.4375 c 1.89734,0.63943 3.83188,1.062499 5.75,1.0625 4.72002,-2e-6 9.5013,-2.303354 12.65625,-5.84375 0.15826,0.158322 0.27236,0.347643 0.4375,0.5 a 7.3634248,7.3634248 0 0 0 0.0312,0.03125 c 4.09397,3.730614 9.65704,5.312499 15.34375,5.3125 2.27557,-10e-7 4.62193,-0.230054 6.96875,-0.6875 l 0,0.03125 c 0.0228,-0.0043 0.0398,-0.02691 0.0625,-0.03125 2.31418,-0.441967 4.54065,-1.114292 6.71875,-1.9375 A 7.3634248,7.3634248 0 0 0 342.625,78 l 0,-4.65625 a 7.3634248,7.3634248 0 0 0 1.1875,-3.96875 l 0,-2.25 c -4e-5,-5.363176 -1.888,-10.752097 -5.65625,-14.53125 -0.006,-0.0058 -0.0255,0.0058 -0.0312,0 -3.7839,-3.796792 -9.16319,-5.656216 -14.46875,-5.65625 -5.5626,3.3e-5 -11.08064,1.702792 -15.0625,5.46875 -0.11789,0.112175 -0.19818,0.259753 -0.3125,0.375 -3.14529,-3.540331 -7.91944,-5.843711 -12.65625,-5.84375 -0.25932,4e-6 -0.5208,0.0832 -0.78125,0.09375 l 0,-1.71875 a 7.3634248,7.3634248 0 0 0 -7.375,-7.375 l -7.875,0 z m -79.96875,27.03125 2.4375,0.375 1.78125,0.25 c 0.0533,-0.366789 -0.074,0.156616 -0.5625,0.65625 -0.53675,0.487196 -1.39873,0.656252 -1.21875,0.65625 -0.16646,-2e-6 -1.36198,-0.414 -1.90625,-0.9375 -0.3641,-0.417546 -0.44855,-0.723405 -0.53125,-1 z m 121.5625,0 2.4375,0.375 1.78125,0.25 c 0.0534,-0.366789 -0.074,0.156616 -0.5625,0.65625 -0.53675,0.487196 -1.39873,0.656252 -1.21875,0.65625 -0.16646,-2e-6 -1.36198,-0.414 -1.90625,-0.9375 -0.3641,-0.417546 -0.44855,-0.723405 -0.53125,-1 z m -28.5,2.09375 c 0.0139,0 0.21931,0.1341 0.28125,0.15625 -0.0668,0.02304 -0.26075,0.15625 -0.28125,0.15625 -0.0122,0 -0.20068,-0.140238 -0.25,-0.15625 0.0493,-0.01601 0.23775,-0.15625 0.25,-0.15625 z"
         id="path7515"
         style="font-size:45px;font-style:normal;font-variant:normal;font-weight:bold;font-stretch:normal;text-align:start;line-height:125%;letter-spacing:0px;word-spacing:0px;writing-mode:lr-tb;text-anchor:start;fill:#999999;fill-opacity:0.46118721000000001;stroke:none;font-family:Sans;-inkscape-font-specification:Sans Bold;stroke-opacity:1"
         inkscape:original="M 279.59375 45.3125 L 279.59375 79.5 L 287.46875 79.5 L 287.46875 75.9375 C 288.55272 77.373049 289.74413 78.436524 291.0625 79.125 C 292.38084 79.798828 293.91111 80.124999 295.625 80.125 C 298.6572 80.124999 301.14548 78.933594 303.09375 76.53125 C 305.04196 74.114263 306.03122 71.012704 306.03125 67.21875 C 306.03122 63.424821 305.04196 60.339863 303.09375 57.9375 C 301.14548 55.520532 298.6572 54.312525 295.625 54.3125 C 293.91111 54.312525 292.38084 54.655298 291.0625 55.34375 C 289.74413 56.017602 288.55272 57.064476 287.46875 58.5 L 287.46875 45.3125 L 279.59375 45.3125 z M 157.6875 46.6875 L 157.6875 79.5 L 166.15625 79.5 L 166.15625 68.125 L 171.75 68.125 C 175.92478 68.125011 179.11716 67.189465 181.34375 65.34375 C 183.58493 63.483414 184.71872 60.848651 184.71875 57.40625 C 184.71872 53.978541 183.58493 51.345731 181.34375 49.5 C 179.11716 47.63968 175.92478 46.687533 171.75 46.6875 L 157.6875 46.6875 z M 166.15625 52.8125 L 170.84375 52.8125 C 172.48436 52.812527 173.76268 53.209011 174.65625 54 C 175.54978 54.79104 175.96873 55.94143 175.96875 57.40625 C 175.96873 58.871114 175.54978 60.006855 174.65625 60.8125 C 173.76268 61.603534 172.48436 62.000018 170.84375 62 L 166.15625 62 L 166.15625 52.8125 z M 202.09375 54.3125 C 197.84569 54.312525 194.52538 55.450219 192.09375 57.75 C 189.67675 60.049824 188.46875 63.205094 188.46875 67.21875 C 188.46875 71.305672 189.69531 74.479497 192.15625 76.75 C 194.63183 79.00586 198.10936 80.124999 202.5625 80.125 C 204.42283 80.124999 206.26463 79.95996 208.125 79.59375 C 209.98533 79.242188 211.85837 78.703126 213.71875 78 L 213.71875 71.9375 C 211.88767 72.9336 210.08689 73.689459 208.34375 74.1875 C 206.61521 74.670903 204.93651 74.906255 203.28125 74.90625 C 201.23045 74.906255 199.61132 74.454107 198.46875 73.53125 C 197.32616 72.608405 196.65917 71.220711 196.46875 69.375 L 214.875 69.375 L 214.875 67.125 C 214.87497 63.228532 213.70407 60.110371 211.375 57.78125 C 209.06052 55.452172 205.96092 54.312525 202.09375 54.3125 z M 233.125 54.3125 C 228.68651 54.312525 225.22362 55.433618 222.71875 57.71875 C 220.21386 59.989277 218.96875 63.161149 218.96875 67.21875 C 218.96875 71.276375 220.21386 74.433599 222.71875 76.71875 C 225.22362 78.989258 228.68651 80.124999 233.125 80.125 C 234.3994 80.124999 235.67772 80.015624 236.9375 79.78125 C 238.21189 79.561523 239.45701 79.235352 240.6875 78.78125 L 240.6875 72.34375 C 239.74998 73.06153 238.73826 73.602545 237.625 73.96875 C 236.52635 74.334966 235.35545 74.500005 234.125 74.5 C 231.92772 74.500005 230.19921 73.86817 228.96875 72.59375 C 227.75292 71.304696 227.15624 69.518565 227.15625 67.21875 C 227.15624 64.91896 227.75292 63.11818 228.96875 61.84375 C 230.19921 60.554706 231.92772 59.93752 234.125 59.9375 C 235.28221 59.93752 236.39939 60.085957 237.46875 60.4375 C 238.55271 60.789081 239.61814 61.330096 240.6875 62.0625 L 240.6875 55.65625 C 239.44236 55.202173 238.19724 54.876001 236.9375 54.65625 C 235.69236 54.4219 234.41405 54.312525 233.125 54.3125 z M 323.65625 54.3125 C 319.40819 54.312525 316.08788 55.450219 313.65625 57.75 C 311.23925 60.049824 310.03125 63.205094 310.03125 67.21875 C 310.03125 71.305672 311.25781 74.479497 313.71875 76.75 C 316.19433 79.00586 319.64061 80.124999 324.09375 80.125 C 325.95408 80.124999 327.82713 79.95996 329.6875 79.59375 C 331.54783 79.242188 333.38962 78.703126 335.25 78 L 335.25 71.9375 C 333.41892 72.9336 331.64939 73.689459 329.90625 74.1875 C 328.17771 74.670903 326.46776 74.906255 324.8125 74.90625 C 322.7617 74.906255 321.17382 74.454107 320.03125 73.53125 C 318.88866 72.608405 318.22167 71.220711 318.03125 69.375 L 336.4375 69.375 L 336.4375 67.125 C 336.43747 63.228532 335.26657 60.110371 332.9375 57.78125 C 330.62302 55.452172 327.52342 54.312525 323.65625 54.3125 z M 247.25 54.90625 L 247.25 69.90625 C 247.25 73.231452 247.98925 75.78809 249.46875 77.53125 C 250.96288 79.274414 253.15819 80.124999 256 80.125 C 257.59667 80.124999 259.02538 79.798828 260.34375 79.125 C 261.67674 78.436524 262.93846 77.373049 264.125 75.9375 L 264.125 79.5 L 272 79.5 L 272 54.90625 L 264.125 54.90625 L 264.125 67.03125 C 264.12498 69.272471 263.65623 71.021493 262.71875 72.28125 C 261.78123 73.541022 260.51561 74.187505 258.875 74.1875 C 258.20116 74.187505 257.58983 74.059576 257.0625 73.78125 C 256.54979 73.502936 256.13475 73.106452 255.8125 72.59375 C 255.56346 72.19825 255.38378 71.551766 255.28125 70.6875 C 255.1787 69.808603 255.12499 68.3838 255.125 66.40625 C 255.12499 65.732436 255.14159 64.381851 255.15625 62.375 C 255.17089 60.353535 255.18749 58.676779 255.1875 57.34375 L 255.1875 54.90625 L 247.25 54.90625 z M 202.0625 59.53125 C 203.46873 59.53127 204.60447 59.983418 205.46875 60.90625 C 206.34764 61.814471 206.78123 63.037126 206.78125 64.53125 L 196.5625 64.53125 C 196.79686 62.919938 197.39159 61.662127 198.34375 60.8125 C 199.29589 59.948262 200.53905 59.53127 202.0625 59.53125 z M 323.625 59.53125 C 325.03123 59.53127 326.16697 59.983418 327.03125 60.90625 C 327.91014 61.814471 328.34373 63.037126 328.34375 64.53125 L 318.125 64.53125 C 318.35936 62.919938 318.95409 61.662127 319.90625 60.8125 C 320.85839 59.948262 322.10155 59.53127 323.625 59.53125 z M 292.6875 60 C 294.37205 60.000019 295.68357 60.6133 296.5625 61.84375 C 297.45603 63.074235 297.87498 64.875015 297.875 67.21875 C 297.87498 69.56251 297.45603 71.363289 296.5625 72.59375 C 295.68357 73.824224 294.37205 74.437505 292.6875 74.4375 C 291.00291 74.437505 289.72069 73.824224 288.8125 72.59375 C 287.91893 71.348641 287.46874 69.547862 287.46875 67.21875 C 287.46874 64.889663 287.91893 63.105485 288.8125 61.875 C 289.72069 60.629902 291.00291 60.000019 292.6875 60 z "
         inkscape:radius="7.3626885"
         sodipodi:type="inkscape:offset" />
      <path
         transform="translate(-105.71429,-3.5714286)"
         d="m 385.3125,43.75 c -0.86256,-0.004 0.11276,-0.115794 -0.875,0.0625 -1.02287,0.184631 0.0998,-0.110721 -0.875,0.25 -0.9748,0.360721 0.0842,-0.150686 -0.8125,0.375 -0.89666,0.525686 0.0721,-0.143188 -0.71875,0.53125 -0.79087,0.674438 0.004,-0.177391 -0.65625,0.625 -0.66069,0.802391 0.0101,-0.155597 -0.5,0.75 -0.51014,0.905597 -0.0312,-0.168374 -0.375,0.8125 -0.34385,0.980874 -0.0518,-0.150901 -0.21875,0.875 a 6.3038859,6.3038859 0 0 1 -6.21875,5.3125 l -4.1875,0 -0.0312,0 c -1.01743,-0.0045 0.13639,-0.142997 -1,0.09375 -1.1716,0.244083 0.0986,-0.162184 -1,0.3125 a 6.3038859,6.3038859 0 0 1 -5,0 c -1.09116,-0.471515 0.1946,-0.06844 -0.96875,-0.3125 -1.12839,-0.236725 0.0106,-0.09537 -1,-0.09375 l -0.0312,0 -7.84375,0 -0.0312,0 c -1.03765,-0.0036 0.12219,-0.151158 -1.03125,0.09375 -1.18811,0.252271 0.11165,-0.145635 -1,0.34375 a 6.3038859,6.3038859 0 0 1 -4.40625,0.25 c -1.33184,-0.411266 -2.1525,-0.682181 -2.875,-0.8125 a 6.3038859,6.3038859 0 0 1 -0.0312,0 c -0.0891,-0.01587 -0.0243,-0.01872 -0.0937,-0.03125 A 6.3038859,6.3038859 0 0 1 343.5,53.15625 c -0.10632,-0.01942 -0.20623,-0.01336 -0.3125,-0.03125 -1.47539,-0.248321 -2.94947,-0.374973 -4.34375,-0.375 -4.41393,2.5e-5 -8.90333,1.281071 -12.375,3.78125 A 6.3038859,6.3038859 0 0 1 319,56.46875 c -3.17682,-2.370391 -7.40276,-3.718725 -11.1875,-3.71875 -2.55888,1.5e-5 -5.25982,0.453609 -7.75,1.375 a 6.3038859,6.3038859 0 0 1 -7.40625,-2.375 c -0.69798,-1.026445 -1.48111,-1.901799 -2.3125,-2.59375 a 6.3038859,6.3038859 0 0 1 -0.0625,-0.0625 c -3.46529,-2.875331 -7.93387,-3.937462 -12.8125,-3.9375 l -14.0625,0 c -1.16163,-7.91e-4 0.13942,-0.13229 -1,0.09375 -1.13942,0.22604 0.1046,-0.16292 -0.96875,0.28125 -1.07335,0.44417 0.091,-0.176451 -0.875,0.46875 -0.96597,0.645201 0.0401,-0.165144 -0.78125,0.65625 -0.82139,0.821394 -0.0111,-0.184718 -0.65625,0.78125 -0.6452,0.965968 -0.0246,-0.198355 -0.46875,0.875 -0.44417,1.073355 -0.0552,-0.170672 -0.28125,0.96875 -0.22604,1.139422 -0.0945,-0.161627 -0.0937,1 l 0,32.78125 c -7.9e-4,1.161627 -0.13229,-0.139422 0.0937,1 0.22604,1.139422 -0.16292,-0.104605 0.28125,0.96875 0.44417,1.073355 -0.17645,-0.09097 0.46875,0.875 0.6452,0.965968 -0.16514,-0.04014 0.65625,0.78125 0.82139,0.821394 -0.18472,0.01105 0.78125,0.65625 0.96597,0.645201 -0.19835,0.02458 0.875,0.46875 1.07335,0.44417 -0.17067,0.05521 0.96875,0.28125 1.13942,0.22604 -0.16163,0.09454 1,0.09375 l 8.46875,0 c 1.16163,7.91e-4 -0.13942,0.13229 1,-0.09375 1.13942,-0.22604 -0.1046,0.16292 0.96875,-0.28125 1.07335,-0.44417 -0.091,0.176451 0.875,-0.46875 0.96597,-0.645201 -0.0401,0.165144 0.78125,-0.65625 0.82139,-0.821394 0.0111,0.184718 0.65625,-0.78125 0.6452,-0.965968 0.0246,0.198355 0.46875,-0.875 0.44417,-1.073355 0.0552,0.170672 0.28125,-0.96875 0.22604,-1.139422 0.0945,0.161627 0.0937,-1 l 0,-0.5 a 6.3038859,6.3038859 0 0 1 5.21875,-6.21875 c 0.70402,-0.122572 1.2749,-0.206633 1.6875,-0.3125 a 6.3038859,6.3038859 0 0 1 7.25,3.34375 c 0.95295,1.97169 2.00645,3.541281 3.1875,4.65625 0.0254,0.02396 0.037,0.07022 0.0625,0.09375 a 6.3038859,6.3038859 0 0 1 0.0312,0 c 3.53098,3.21759 8.65218,4.718749 13.8125,4.71875 2.16207,-10e-7 4.33274,-0.23439 6.5,-0.65625 a 6.3038859,6.3038859 0 0 1 0.125,-0.03125 c 2.13293,-0.407568 4.26526,-0.983878 6.375,-1.78125 0.69724,-0.263853 -0.096,0.09946 0.5625,-0.25 a 6.3038859,6.3038859 0 0 1 6.0625,0.0625 c 3.14194,1.777154 7.09231,2.656249 10.96875,2.65625 1.45544,-10e-7 2.98775,-0.125332 4.5625,-0.40625 a 6.3038859,6.3038859 0 0 1 0.0625,0 6.3038859,6.3038859 0 0 1 0.1875,-0.0625 c 1.5914,-0.283789 3.07588,-0.690362 4.4375,-1.1875 0.10878,-0.04246 0.0465,-0.01475 0.0937,-0.03125 0.24862,-0.08677 -0.0713,0.07333 0.46875,-0.21875 a 6.3038859,6.3038859 0 0 1 6,-0.03125 c 2.32551,1.253843 5.02488,1.937499 7.03125,1.9375 1.14771,-10e-7 2.51925,-0.235887 4.09375,-0.6875 a 6.3038859,6.3038859 0 0 1 3.15625,-0.09375 c 1.03633,0.235133 0.31706,0.13637 0.90625,0.125 l 0.125,0 7.6875,0 0.0625,0 c 0.65701,0.004 -0.1288,0.102963 0.78125,-0.0625 0.98242,-0.178622 -0.0947,0.09125 0.84375,-0.25 a 6.3038859,6.3038859 0 0 1 4.3125,0 c 0.94601,0.343932 -0.14687,0.07136 0.84375,0.25 0.92022,0.165941 0.13947,0.06806 0.8125,0.0625 0.0515,-4.26e-4 -0.009,-5.81e-4 0.0625,0 l 7.75,0 0.0625,0 c 0.82914,0.0039 -0.1384,0.135406 0.9375,-0.09375 A 6.3038859,6.3038859 0 0 1 394.6875,88 c -2.2e-4,2.6e-5 0.0589,0.0014 0.0625,0 a 6.3038859,6.3038859 0 0 1 0.625,-0.0625 6.3038859,6.3038859 0 0 1 0.1875,0 6.3038859,6.3038859 0 0 1 1.5,0.25 c 0.041,0.01074 0.0516,-0.01165 0.0937,0 1.60903,0.444288 3.01068,0.656249 4.1875,0.65625 2.81457,-10e-7 6.44531,-1.275578 9.09375,-3.28125 a 6.3038859,6.3038859 0 0 1 7.34375,-0.1875 c 3.41364,2.318202 7.76353,3.468749 12.03125,3.46875 2.16207,-10e-7 4.33274,-0.23439 6.5,-0.65625 a 6.3038859,6.3038859 0 0 1 0.125,-0.03125 c 2.13653,-0.408523 4.25769,-0.992831 6.34375,-1.78125 0.83691,-0.314753 -0.0924,0.124774 0.6875,-0.3125 0.77992,-0.437274 -0.0489,0.112308 0.65625,-0.4375 0.70512,-0.549808 -0.0517,0.118536 0.5625,-0.53125 0.61422,-0.649786 -0.009,0.141173 0.5,-0.59375 0.50929,-0.734923 0.0135,0.147026 0.40625,-0.65625 0.39273,-0.803276 0.014,0.134534 0.28125,-0.71875 0.2672,-0.853284 0.0207,0.133805 0.15625,-0.75 0.13556,-0.883805 0.0617,0.11289 0.0625,-0.78125 l 0,-3.625 a 6.3038859,6.3038859 0 0 1 0.65625,-2.8125 c 0.59849,-1.208289 0.0965,0.218582 0.40625,-1.09375 0.30147,-1.277274 0.12922,0.04307 0.125,-1.125 l 0,-0.03125 0,-2.1875 c -4e-5,-4.608337 -1.84271,-9.739932 -4.96875,-12.90625 -0.004,-0.003 -0.03,-0.06159 -0.0312,-0.0625 l -0.0312,0 c -3.15247,-3.164624 -8.27435,-4.99997 -12.875,-5 -4.05089,2.4e-5 -8.29836,1.152551 -11.625,3.4375 a 6.3038859,6.3038859 0 0 1 -7.375,-0.15625 c -1.96605,-1.486722 -4.48126,-2.548974 -7,-2.96875 a 6.3038859,6.3038859 0 0 1 -5.1875,-5.09375 c -0.18184,-1.010932 0.13514,0.08927 -0.21875,-0.875 -0.35389,-0.964267 0.14028,0.07606 -0.375,-0.8125 -0.51528,-0.888559 0.16115,0.06734 -0.5,-0.71875 -0.66115,-0.786087 0.13085,0.03494 -0.65625,-0.625 -0.7871,-0.659938 0.1706,0.01391 -0.71875,-0.5 -0.88935,-0.513912 0.15231,-0.02259 -0.8125,-0.375 -0.96481,-0.352406 0.16746,-0.06971 -0.84375,-0.25 -0.97651,-0.174098 -0.0226,-0.06645 -0.875,-0.0625 l -0.0312,0 -7.8125,0 -0.0312,0 z m -113.28125,7.03125 a 6.3038859,6.3038859 0 0 1 6.15625,6.3125 l 0,3.875 0,3.84375 a 6.3038859,6.3038859 0 0 1 -11.5625,3.46875 c -0.74199,-1.125806 -1.30747,-2.235265 -1.75,-3.3125 -0.44253,-1.077235 -0.93746,-1.611602 -0.9375,-4 3e-5,-2.276992 0.46047,-2.893469 0.90625,-4 0.44578,-1.106531 1.01945,-2.235982 1.8125,-3.40625 a 6.3038859,6.3038859 0 0 1 5.375,-2.78125 z m 126.375,9.46875 c 3.18277,-9e-6 3.88912,0.751618 5.46875,1.53125 1.25383,0.618833 2.53463,1.422129 3.875,2.8125 a 6.3038859,6.3038859 0 0 1 0.90625,0.875 c 0.0486,0.06354 0.0762,0.09019 0.125,0.15625 a 6.3038859,6.3038859 0 0 1 0.15625,0.1875 c 0.10825,0.150831 0.0864,0.178543 0.1875,0.34375 a 6.3038859,6.3038859 0 0 1 0.3125,0.5625 c 0.27185,0.524514 0.70241,1.292998 0.65625,1.1875 a 6.3038859,6.3038859 0 0 1 0.53125,2.625 c -0.0154,1.154622 -0.0312,1.238805 -0.0312,0.25 0,-0.878559 0.0159,-0.779052 0.0312,0.28125 a 6.3038859,6.3038859 0 0 1 -0.5,2.5 c 0.0314,-0.07601 -0.33997,0.590458 -0.46875,0.875 a 6.3038859,6.3038859 0 0 1 0,0.03125 6.3038859,6.3038859 0 0 1 -0.75,1.34375 c -0.0274,0.03956 -0.003,0.05525 -0.0312,0.09375 a 6.3038859,6.3038859 0 0 1 -0.0312,0.03125 6.3038859,6.3038859 0 0 1 -1.21875,1.21875 6.3038859,6.3038859 0 0 1 -0.0625,0.0625 c -1.24479,1.221094 -2.44201,2.00677 -3.625,2.59375 -1.58715,0.787521 -2.41794,1.531215 -5.53125,1.53125 -2.1095,-2.6e-5 -2.31927,-0.370705 -2.78125,-0.53125 -0.46198,-0.160545 -0.76944,-0.295507 -0.90625,-0.34375 a 6.3038859,6.3038859 0 0 1 -0.0625,-0.03125 6.3038859,6.3038859 0 0 1 -0.8125,-0.34375 c -1.53283,-0.54706 -3.27845,-1.324115 -5.0625,-3.28125 A 6.3038859,6.3038859 0 0 1 388.125,76.125 c -0.055,-0.0705 -0.10137,-0.114381 -0.15625,-0.1875 a 6.3038859,6.3038859 0 0 1 -0.0937,-0.125 c -0.87451,-1.218075 -1.44302,-2.765411 -1.53125,-3.03125 a 6.3038859,6.3038859 0 0 1 0,-4.03125 c 0.0754,-0.22017 0.68518,-1.699767 1.46875,-2.84375 0.0227,-0.03389 0.0394,-0.09278 0.0625,-0.125 0.0116,-0.01647 0.0196,-0.04645 0.0312,-0.0625 a 6.3038859,6.3038859 0 0 1 0.0625,-0.0625 c 2.29901,-3.062939 4.73054,-3.815698 6.625,-4.5 0.15368,-0.05551 0.49223,-0.174482 0.96875,-0.34375 0.47652,-0.169268 0.70841,-0.562506 2.84375,-0.5625 z m -97.34375,1.53125 1.21875,0 a 6.3038859,6.3038859 0 0 1 0.90625,0.0625 l 5.5,0.8125 3.9375,0.5625 a 6.3038859,6.3038859 0 0 1 0.0625,0.03125 6.3038859,6.3038859 0 0 1 0.1875,0.03125 6.3038859,6.3038859 0 0 1 0.34375,0.0625 l 0.34375,0.0625 a 6.3038859,6.3038859 0 0 1 4.15625,2.71875 c 0.0911,0.138823 0.65063,0.670724 1.3125,2.3125 a 6.3038859,6.3038859 0 0 1 -0.0937,4.90625 c -0.68789,1.554226 -1.18276,1.982982 -1.28125,2.125 -2e-5,3e-5 -0.1542,0.157246 -0.1875,0.1875 A 6.3038859,6.3038859 0 0 1 316.6875,76.5 a 6.3038859,6.3038859 0 0 1 -0.375,0.34375 6.3038859,6.3038859 0 0 1 -0.0937,0.0625 6.3038859,6.3038859 0 0 1 -0.53125,0.34375 c -0.006,0.0051 -0.0276,0.05918 -0.0312,0.0625 -0.006,0.0057 -0.0937,0.06249 -0.0937,0.0625 -3e-5,1.4e-5 -0.10991,0.0255 -0.125,0.03125 a 6.3038859,6.3038859 0 0 1 0,0.03125 6.3038859,6.3038859 0 0 1 -0.1875,0.09375 6.3038859,6.3038859 0 0 1 -0.0937,0.03125 6.3038859,6.3038859 0 0 1 -0.5,0.21875 6.3038859,6.3038859 0 0 1 -0.0937,0.03125 6.3038859,6.3038859 0 0 1 -0.0312,0 A 6.3038859,6.3038859 0 0 1 314,77.96875 c -0.005,0.0019 -0.0268,-0.0017 -0.0312,0 A 6.3038859,6.3038859 0 0 1 313.875,78 c -0.009,0.0036 -0.0938,0.03126 -0.0937,0.03125 a 6.3038859,6.3038859 0 0 1 -0.0625,0 6.3038859,6.3038859 0 0 1 -0.15625,0.03125 c -0.0361,0.0056 -0.0773,0.02402 -0.125,0.03125 a 6.3038859,6.3038859 0 0 1 -0.0937,0 c -0.0534,0.0079 -0.0677,0.02319 -0.125,0.03125 -0.21122,0.02971 -0.34789,0.05704 -0.46875,0.0625 -0.013,5.9e-4 -0.0185,-5.05e-4 -0.0312,0 l -4.28125,0.4375 -0.0312,0 -4.15625,0.4375 a 6.3038859,6.3038859 0 0 1 -4.4375,-1.25 c 1.19033,0.898001 0.6368,1.03964 -1.375,-1 a 6.3038859,6.3038859 0 0 1 -0.0937,-0.125 C 296.87147,75.118482 296.172,73.597401 295.65625,72.25 295.1405,70.902599 294.75003,70.285794 294.75,68.09375 a 6.3038859,6.3038859 0 0 1 6.3125,-6.3125 z m 121.5,0 a 6.3038859,6.3038859 0 0 1 0.40625,0 l 0.875,0 a 6.3038859,6.3038859 0 0 1 0.90625,0.0625 l 5.5,0.8125 3.9375,0.5625 a 6.3038859,6.3038859 0 0 1 0.0625,0.03125 6.3038859,6.3038859 0 0 1 0.1875,0.03125 6.3038859,6.3038859 0 0 1 0.34375,0.0625 l 0.34375,0.0625 a 6.3038859,6.3038859 0 0 1 4.15625,2.71875 c 0.0911,0.138823 0.65063,0.670724 1.3125,2.3125 A 6.3038859,6.3038859 0 0 1 440.5,73.34375 c -0.68789,1.554226 -1.18276,1.982982 -1.28125,2.125 -2e-5,3e-5 -0.1542,0.157246 -0.1875,0.1875 A 6.3038859,6.3038859 0 0 1 438.25,76.5 a 6.3038859,6.3038859 0 0 1 -0.375,0.34375 6.3038859,6.3038859 0 0 1 -0.0937,0.0625 A 6.3038859,6.3038859 0 0 1 437.25,77.25 c -0.006,0.0051 -0.0276,0.05918 -0.0312,0.0625 -0.006,0.0057 -0.0937,0.06249 -0.0937,0.0625 -3e-5,1.4e-5 -0.10991,0.0255 -0.125,0.03125 a 6.3038859,6.3038859 0 0 1 0,0.03125 6.3038859,6.3038859 0 0 1 -0.1875,0.09375 6.3038859,6.3038859 0 0 1 -0.0937,0.03125 6.3038859,6.3038859 0 0 1 -0.5,0.21875 6.3038859,6.3038859 0 0 1 -0.0937,0.03125 6.3038859,6.3038859 0 0 1 -0.0312,0 6.3038859,6.3038859 0 0 1 -0.53125,0.15625 c -0.005,0.0019 -0.0268,-0.0017 -0.0312,0 A 6.3038859,6.3038859 0 0 1 435.4375,78 c -0.009,0.0036 -0.0938,0.03126 -0.0937,0.03125 a 6.3038859,6.3038859 0 0 1 -0.0625,0 6.3038859,6.3038859 0 0 1 -0.15625,0.03125 c -0.0361,0.0056 -0.0773,0.02402 -0.125,0.03125 a 6.3038859,6.3038859 0 0 1 -0.0937,0 c -0.0534,0.0079 -0.0677,0.02319 -0.125,0.03125 -0.21122,0.02971 -0.34789,0.05704 -0.46875,0.0625 -0.013,5.9e-4 -0.0185,-5.05e-4 -0.0312,0 L 430,78.625 l -0.0312,0 -4.15625,0.4375 a 6.3038859,6.3038859 0 0 1 -4.4375,-1.25 c 1.19033,0.898001 0.6368,1.03964 -1.375,-1 a 6.3038859,6.3038859 0 0 1 -0.0937,-0.125 C 418.5033,75.192375 417.73447,73.696285 417.1875,72.25 a 6.3038859,6.3038859 0 0 1 -0.40625,-2.0625 c -0.0107,-0.426792 -0.0398,-0.938429 -0.0937,-1.53125 a 6.3038859,6.3038859 0 0 1 5.875,-6.875 z"
         id="path6969"
         style="font-size:45px;font-style:normal;font-variant:normal;font-weight:bold;font-stretch:normal;text-align:start;line-height:125%;letter-spacing:0px;word-spacing:0px;writing-mode:lr-tb;text-anchor:start;fill:#ff5555;fill-opacity:0.05479452000000000;stroke:none;font-family:Sans;-inkscape-font-specification:Sans Bold"
         inkscape:original="M 385.3125 43.75 C 384.44994 43.74599 385.42526 43.634206 384.4375 43.8125 C 383.41463 43.997131 384.5373 43.701779 383.5625 44.0625 C 382.5877 44.423221 383.64666 43.911814 382.75 44.4375 C 381.85334 44.963186 382.82212 44.294312 382.03125 44.96875 C 381.24038 45.643188 382.03569 44.791359 381.375 45.59375 C 380.71431 46.396141 381.38514 45.438153 380.875 46.34375 C 380.36486 47.249347 380.84385 46.175376 380.5 47.15625 C 380.15615 48.137124 380.44821 47.005349 380.28125 48.03125 A 6.3038859 6.3038859 0 0 1 374.0625 53.34375 L 369.875 53.34375 L 369.84375 53.34375 C 368.82632 53.339258 369.98014 53.200753 368.84375 53.4375 C 367.67215 53.681583 368.94234 53.275316 367.84375 53.75 A 6.3038859 6.3038859 0 0 1 362.84375 53.75 C 361.75259 53.278485 363.03835 53.68156 361.875 53.4375 C 360.74661 53.200775 361.88556 53.342128 360.875 53.34375 L 360.84375 53.34375 L 353 53.34375 L 352.96875 53.34375 C 351.9311 53.340135 353.09094 53.192592 351.9375 53.4375 C 350.74939 53.689771 352.04915 53.291865 350.9375 53.78125 A 6.3038859 6.3038859 0 0 1 346.53125 54.03125 C 345.19941 53.619984 344.37875 53.349069 343.65625 53.21875 A 6.3038859 6.3038859 0 0 1 343.625 53.21875 C 343.53589 53.202876 343.60071 53.200031 343.53125 53.1875 A 6.3038859 6.3038859 0 0 1 343.5 53.15625 C 343.39368 53.136829 343.29377 53.142886 343.1875 53.125 C 341.71211 52.876679 340.23803 52.750027 338.84375 52.75 C 334.42982 52.750025 329.94042 54.031071 326.46875 56.53125 A 6.3038859 6.3038859 0 0 1 319 56.46875 C 315.82318 54.098359 311.59724 52.750025 307.8125 52.75 C 305.25362 52.750015 302.55268 53.203609 300.0625 54.125 A 6.3038859 6.3038859 0 0 1 292.65625 51.75 C 291.95827 50.723555 291.17514 49.848201 290.34375 49.15625 A 6.3038859 6.3038859 0 0 1 290.28125 49.09375 C 286.81596 46.218419 282.34738 45.156288 277.46875 45.15625 L 263.40625 45.15625 C 262.24462 45.155459 263.54567 45.02396 262.40625 45.25 C 261.26683 45.47604 262.51085 45.08708 261.4375 45.53125 C 260.36415 45.97542 261.52847 45.354799 260.5625 46 C 259.59653 46.645201 260.60264 45.834856 259.78125 46.65625 C 258.95986 47.477644 259.7702 46.471532 259.125 47.4375 C 258.4798 48.403468 259.10042 47.239145 258.65625 48.3125 C 258.21208 49.385855 258.60104 48.141828 258.375 49.28125 C 258.14896 50.420672 258.28046 49.119623 258.28125 50.28125 L 258.28125 83.0625 C 258.28046 84.224127 258.14896 82.923078 258.375 84.0625 C 258.60104 85.201922 258.21208 83.957895 258.65625 85.03125 C 259.10042 86.104605 258.4798 84.940282 259.125 85.90625 C 259.7702 86.872218 258.95986 85.866106 259.78125 86.6875 C 260.60264 87.508894 259.59653 86.698549 260.5625 87.34375 C 261.52847 87.988951 260.36415 87.36833 261.4375 87.8125 C 262.51085 88.25667 261.26683 87.86771 262.40625 88.09375 C 263.54567 88.31979 262.24462 88.188291 263.40625 88.1875 L 271.875 88.1875 C 273.03663 88.188291 271.73558 88.31979 272.875 88.09375 C 274.01442 87.86771 272.7704 88.25667 273.84375 87.8125 C 274.9171 87.36833 273.75278 87.988951 274.71875 87.34375 C 275.68472 86.698549 274.67861 87.508894 275.5 86.6875 C 276.32139 85.866106 275.51105 86.872218 276.15625 85.90625 C 276.80145 84.940282 276.18083 86.104605 276.625 85.03125 C 277.06917 83.957895 276.68021 85.201922 276.90625 84.0625 C 277.13229 82.923078 277.00079 84.224127 277 83.0625 L 277 82.5625 A 6.3038859 6.3038859 0 0 1 282.21875 76.34375 C 282.92277 76.221178 283.49365 76.137117 283.90625 76.03125 A 6.3038859 6.3038859 0 0 1 291.15625 79.375 C 292.1092 81.34669 293.1627 82.916281 294.34375 84.03125 C 294.36913 84.055207 294.38075 84.101471 294.40625 84.125 A 6.3038859 6.3038859 0 0 1 294.4375 84.125 C 297.96848 87.34259 303.08968 88.843749 308.25 88.84375 C 310.41207 88.843749 312.58274 88.60936 314.75 88.1875 A 6.3038859 6.3038859 0 0 1 314.875 88.15625 C 317.00793 87.748682 319.14026 87.172372 321.25 86.375 C 321.94724 86.111147 321.15399 86.47446 321.8125 86.125 A 6.3038859 6.3038859 0 0 1 327.875 86.1875 C 331.01694 87.964654 334.96731 88.843749 338.84375 88.84375 C 340.29919 88.843749 341.8315 88.718418 343.40625 88.4375 A 6.3038859 6.3038859 0 0 1 343.46875 88.4375 A 6.3038859 6.3038859 0 0 1 343.65625 88.375 C 345.24765 88.091211 346.73213 87.684638 348.09375 87.1875 C 348.20253 87.145041 348.14022 87.172752 348.1875 87.15625 C 348.43612 87.069482 348.11618 87.229582 348.65625 86.9375 A 6.3038859 6.3038859 0 0 1 354.65625 86.90625 C 356.98176 88.160093 359.68113 88.843749 361.6875 88.84375 C 362.83521 88.843749 364.20675 88.607863 365.78125 88.15625 A 6.3038859 6.3038859 0 0 1 368.9375 88.0625 C 369.97383 88.297633 369.25456 88.19887 369.84375 88.1875 L 369.96875 88.1875 L 377.65625 88.1875 L 377.71875 88.1875 C 378.37576 88.191477 377.58995 88.290463 378.5 88.125 C 379.48242 87.946378 378.40534 88.216249 379.34375 87.875 A 6.3038859 6.3038859 0 0 1 383.65625 87.875 C 384.60226 88.218932 383.50938 87.946364 384.5 88.125 C 385.42022 88.290941 384.63947 88.193064 385.3125 88.1875 C 385.36399 88.187074 385.30347 88.186919 385.375 88.1875 L 393.125 88.1875 L 393.1875 88.1875 C 394.01664 88.191402 393.0491 88.322906 394.125 88.09375 A 6.3038859 6.3038859 0 0 1 394.6875 88 C 394.68728 88.000026 394.74642 88.001375 394.75 88 A 6.3038859 6.3038859 0 0 1 395.375 87.9375 A 6.3038859 6.3038859 0 0 1 395.5625 87.9375 A 6.3038859 6.3038859 0 0 1 397.0625 88.1875 C 397.10348 88.198242 397.11406 88.175853 397.15625 88.1875 C 398.76528 88.631788 400.16693 88.843749 401.34375 88.84375 C 404.15832 88.843749 407.78906 87.568172 410.4375 85.5625 A 6.3038859 6.3038859 0 0 1 417.78125 85.375 C 421.19489 87.693202 425.54478 88.843749 429.8125 88.84375 C 431.97457 88.843749 434.14524 88.60936 436.3125 88.1875 A 6.3038859 6.3038859 0 0 1 436.4375 88.15625 C 438.57403 87.747727 440.69519 87.163419 442.78125 86.375 C 443.61816 86.060247 442.68883 86.499774 443.46875 86.0625 C 444.24867 85.625226 443.41988 86.174808 444.125 85.625 C 444.83012 85.075192 444.07328 85.743536 444.6875 85.09375 C 445.30172 84.443964 444.67821 85.234923 445.1875 84.5 C 445.69679 83.765077 445.20102 84.647026 445.59375 83.84375 C 445.98648 83.040474 445.6078 83.978284 445.875 83.125 C 446.1422 82.271716 445.89569 83.258805 446.03125 82.375 C 446.16681 81.491195 446.09292 82.48789 446.09375 81.59375 L 446.09375 77.96875 A 6.3038859 6.3038859 0 0 1 446.75 75.15625 C 447.34849 73.947961 446.84651 75.374832 447.15625 74.0625 C 447.45772 72.785226 447.28547 74.105573 447.28125 72.9375 L 447.28125 72.90625 L 447.28125 70.71875 C 447.28121 66.110413 445.43854 60.978818 442.3125 57.8125 C 442.30837 57.809491 442.28249 57.750905 442.28125 57.75 L 442.25 57.75 C 439.09753 54.585376 433.97565 52.75003 429.375 52.75 C 425.32411 52.750024 421.07664 53.902551 417.75 56.1875 A 6.3038859 6.3038859 0 0 1 410.375 56.03125 C 408.40895 54.544528 405.89374 53.482276 403.375 53.0625 A 6.3038859 6.3038859 0 0 1 398.1875 47.96875 C 398.00566 46.957818 398.32264 48.058017 397.96875 47.09375 C 397.61486 46.129483 398.10903 47.169809 397.59375 46.28125 C 397.07847 45.392691 397.7549 46.348587 397.09375 45.5625 C 396.4326 44.776413 397.2246 45.597438 396.4375 44.9375 C 395.6504 44.277562 396.6081 44.951412 395.71875 44.4375 C 394.8294 43.923588 395.87106 44.414906 394.90625 44.0625 C 393.94144 43.710094 395.07371 43.992786 394.0625 43.8125 C 393.08599 43.638402 394.03988 43.746046 393.1875 43.75 L 393.15625 43.75 L 385.34375 43.75 L 385.3125 43.75 z M 272.03125 50.78125 A 6.3038859 6.3038859 0 0 1 278.1875 57.09375 L 278.1875 60.96875 L 278.1875 64.8125 A 6.3038859 6.3038859 0 0 1 266.625 68.28125 C 265.88301 67.155444 265.31753 66.045985 264.875 64.96875 C 264.43247 63.891515 263.93754 63.357148 263.9375 60.96875 C 263.93753 58.691758 264.39797 58.075281 264.84375 56.96875 C 265.28953 55.862219 265.8632 54.732768 266.65625 53.5625 A 6.3038859 6.3038859 0 0 1 272.03125 50.78125 z M 398.40625 60.25 C 401.58902 60.249991 402.29537 61.001618 403.875 61.78125 C 405.12883 62.400083 406.40963 63.203379 407.75 64.59375 A 6.3038859 6.3038859 0 0 1 408.65625 65.46875 C 408.70483 65.532286 408.73249 65.558938 408.78125 65.625 A 6.3038859 6.3038859 0 0 1 408.9375 65.8125 C 409.04575 65.963331 409.02393 65.991043 409.125 66.15625 A 6.3038859 6.3038859 0 0 1 409.4375 66.71875 C 409.70935 67.243264 410.13991 68.011748 410.09375 67.90625 A 6.3038859 6.3038859 0 0 1 410.625 70.53125 C 410.60956 71.685872 410.59375 71.770055 410.59375 70.78125 C 410.59375 69.902691 410.60968 70.002198 410.625 71.0625 A 6.3038859 6.3038859 0 0 1 410.125 73.5625 C 410.15637 73.486487 409.78503 74.152958 409.65625 74.4375 A 6.3038859 6.3038859 0 0 1 409.65625 74.46875 A 6.3038859 6.3038859 0 0 1 408.90625 75.8125 C 408.87881 75.852065 408.90296 75.867749 408.875 75.90625 A 6.3038859 6.3038859 0 0 1 408.84375 75.9375 A 6.3038859 6.3038859 0 0 1 407.625 77.15625 A 6.3038859 6.3038859 0 0 1 407.5625 77.21875 C 406.31771 78.439844 405.12049 79.22552 403.9375 79.8125 C 402.35035 80.600021 401.51956 81.343715 398.40625 81.34375 C 396.29675 81.343724 396.08698 80.973045 395.625 80.8125 C 395.16302 80.651955 394.85556 80.516993 394.71875 80.46875 A 6.3038859 6.3038859 0 0 1 394.65625 80.4375 A 6.3038859 6.3038859 0 0 1 393.84375 80.09375 C 392.31092 79.54669 390.5653 78.769635 388.78125 76.8125 A 6.3038859 6.3038859 0 0 1 388.125 76.125 C 388.06995 76.054499 388.02363 76.010619 387.96875 75.9375 A 6.3038859 6.3038859 0 0 1 387.875 75.8125 C 387.00049 74.594425 386.43198 73.047089 386.34375 72.78125 A 6.3038859 6.3038859 0 0 1 386.34375 68.75 C 386.41916 68.52983 387.02893 67.050233 387.8125 65.90625 C 387.83523 65.872358 387.85185 65.813466 387.875 65.78125 C 387.88656 65.764776 387.8946 65.734796 387.90625 65.71875 A 6.3038859 6.3038859 0 0 1 387.96875 65.65625 C 390.26776 62.593311 392.69929 61.840552 394.59375 61.15625 C 394.74743 61.100738 395.08598 60.981768 395.5625 60.8125 C 396.03902 60.643232 396.27091 60.249994 398.40625 60.25 z M 301.0625 61.78125 L 302.28125 61.78125 A 6.3038859 6.3038859 0 0 1 303.1875 61.84375 L 308.6875 62.65625 L 312.625 63.21875 A 6.3038859 6.3038859 0 0 1 312.6875 63.25 A 6.3038859 6.3038859 0 0 1 312.875 63.28125 A 6.3038859 6.3038859 0 0 1 313.21875 63.34375 L 313.5625 63.40625 A 6.3038859 6.3038859 0 0 1 317.71875 66.125 C 317.80982 66.263823 318.36938 66.795724 319.03125 68.4375 A 6.3038859 6.3038859 0 0 1 318.9375 73.34375 C 318.24961 74.897976 317.75474 75.326732 317.65625 75.46875 C 317.65623 75.46878 317.50205 75.625996 317.46875 75.65625 A 6.3038859 6.3038859 0 0 1 316.6875 76.5 A 6.3038859 6.3038859 0 0 1 316.3125 76.84375 A 6.3038859 6.3038859 0 0 1 316.21875 76.90625 A 6.3038859 6.3038859 0 0 1 315.6875 77.25 C 315.68184 77.255134 315.65991 77.30918 315.65625 77.3125 C 315.65 77.318174 315.56251 77.374992 315.5625 77.375 C 315.56247 77.375014 315.45259 77.400502 315.4375 77.40625 A 6.3038859 6.3038859 0 0 1 315.4375 77.4375 A 6.3038859 6.3038859 0 0 1 315.25 77.53125 A 6.3038859 6.3038859 0 0 1 315.15625 77.5625 A 6.3038859 6.3038859 0 0 1 314.65625 77.78125 A 6.3038859 6.3038859 0 0 1 314.5625 77.8125 A 6.3038859 6.3038859 0 0 1 314.53125 77.8125 A 6.3038859 6.3038859 0 0 1 314 77.96875 C 313.99489 77.970693 313.97318 77.967065 313.96875 77.96875 A 6.3038859 6.3038859 0 0 1 313.875 78 C 313.86566 78.003553 313.78122 78.031256 313.78125 78.03125 A 6.3038859 6.3038859 0 0 1 313.71875 78.03125 A 6.3038859 6.3038859 0 0 1 313.5625 78.0625 C 313.52643 78.068118 313.48524 78.086517 313.4375 78.09375 A 6.3038859 6.3038859 0 0 1 313.34375 78.09375 C 313.29038 78.101631 313.27602 78.116944 313.21875 78.125 C 313.00753 78.15471 312.87086 78.182036 312.75 78.1875 C 312.73696 78.18809 312.73149 78.186995 312.71875 78.1875 L 308.4375 78.625 L 308.40625 78.625 L 304.25 79.0625 A 6.3038859 6.3038859 0 0 1 299.8125 77.8125 C 301.00283 78.710501 300.4493 78.85214 298.4375 76.8125 A 6.3038859 6.3038859 0 0 1 298.34375 76.6875 C 296.87147 75.118482 296.172 73.597401 295.65625 72.25 C 295.1405 70.902599 294.75003 70.285794 294.75 68.09375 A 6.3038859 6.3038859 0 0 1 301.0625 61.78125 z M 422.5625 61.78125 A 6.3038859 6.3038859 0 0 1 422.96875 61.78125 L 423.84375 61.78125 A 6.3038859 6.3038859 0 0 1 424.75 61.84375 L 430.25 62.65625 L 434.1875 63.21875 A 6.3038859 6.3038859 0 0 1 434.25 63.25 A 6.3038859 6.3038859 0 0 1 434.4375 63.28125 A 6.3038859 6.3038859 0 0 1 434.78125 63.34375 L 435.125 63.40625 A 6.3038859 6.3038859 0 0 1 439.28125 66.125 C 439.37232 66.263823 439.93188 66.795724 440.59375 68.4375 A 6.3038859 6.3038859 0 0 1 440.5 73.34375 C 439.81211 74.897976 439.31724 75.326732 439.21875 75.46875 C 439.21873 75.46878 439.06455 75.625996 439.03125 75.65625 A 6.3038859 6.3038859 0 0 1 438.25 76.5 A 6.3038859 6.3038859 0 0 1 437.875 76.84375 A 6.3038859 6.3038859 0 0 1 437.78125 76.90625 A 6.3038859 6.3038859 0 0 1 437.25 77.25 C 437.24434 77.255134 437.22241 77.30918 437.21875 77.3125 C 437.2125 77.318174 437.12501 77.374992 437.125 77.375 C 437.12497 77.375014 437.01509 77.400502 437 77.40625 A 6.3038859 6.3038859 0 0 1 437 77.4375 A 6.3038859 6.3038859 0 0 1 436.8125 77.53125 A 6.3038859 6.3038859 0 0 1 436.71875 77.5625 A 6.3038859 6.3038859 0 0 1 436.21875 77.78125 A 6.3038859 6.3038859 0 0 1 436.125 77.8125 A 6.3038859 6.3038859 0 0 1 436.09375 77.8125 A 6.3038859 6.3038859 0 0 1 435.5625 77.96875 C 435.55739 77.970693 435.53568 77.967065 435.53125 77.96875 A 6.3038859 6.3038859 0 0 1 435.4375 78 C 435.42816 78.003553 435.34372 78.031256 435.34375 78.03125 A 6.3038859 6.3038859 0 0 1 435.28125 78.03125 A 6.3038859 6.3038859 0 0 1 435.125 78.0625 C 435.08893 78.068118 435.04774 78.086517 435 78.09375 A 6.3038859 6.3038859 0 0 1 434.90625 78.09375 C 434.85288 78.101631 434.83852 78.116944 434.78125 78.125 C 434.57003 78.15471 434.43336 78.182036 434.3125 78.1875 C 434.29946 78.18809 434.29399 78.186995 434.28125 78.1875 L 430 78.625 L 429.96875 78.625 L 425.8125 79.0625 A 6.3038859 6.3038859 0 0 1 421.375 77.8125 C 422.56533 78.710501 422.0118 78.85214 420 76.8125 A 6.3038859 6.3038859 0 0 1 419.90625 76.6875 C 418.5033 75.192375 417.73447 73.696285 417.1875 72.25 A 6.3038859 6.3038859 0 0 1 416.78125 70.1875 C 416.77051 69.760708 416.74144 69.249071 416.6875 68.65625 A 6.3038859 6.3038859 0 0 1 422.5625 61.78125 z "
         inkscape:radius="0"
         sodipodi:type="inkscape:offset" />
      <text
         sodipodi:linespacing="125%"
         id="text3828"
         y="79.501076"
         x="153.57143"
         style="font-size:45px;font-style:normal;font-variant:normal;font-weight:bold;font-stretch:normal;text-align:start;line-height:125%;letter-spacing:0px;word-spacing:0px;writing-mode:lr-tb;text-anchor:start;fill:#000000;fill-opacity:1;stroke:none;font-family:Sans;-inkscape-font-specification:Sans Bold"
         xml:space="preserve"><tspan
           y="79.501076"
           x="153.57143"
           id="tspan3830"
           sodipodi:role="line">Pecube</tspan></text>
    </g>
  </g>
</svg>
